
<svg width="57px" height="54px" viewBox="51 14 57 54" version="1.1" xmlns="http://www.w3.org/2000/svg" xmlns:xlink="http://www.w3.org/1999/xlink">
    <!-- Generator: Sketch 42 (36781) - http://www.bohemiancoding.com/sketch -->
    <desc>Created with Sketch.</desc>
    <defs>
        <linearGradient x1="0.000163675943%" y1="50%" x2="100.000164%" y2="50%" id="linearGradient-1">
            <stop stop-color="#FA0E76" offset="0%"></stop>
            <stop stop-color="#7E0B9B" offset="100%"></stop>
        </linearGradient>
        <linearGradient x1="0.00104913446%" y1="50.0004672%" x2="100%" y2="50.0004672%" id="linearGradient-2">
            <stop stop-color="#FF016D" offset="0%"></stop>
            <stop stop-color="#FB0278" offset="100%"></stop>
        </linearGradient>
        <linearGradient x1="0.00264375413%" y1="49.9985866%" x2="100.252479%" y2="49.9985866%" id="linearGradient-3">
            <stop stop-color="#A700A6" offset="0%"></stop>
            <stop stop-color="#A000A8" offset="100%"></stop>
        </linearGradient>
        <linearGradient x1="0.000901128213%" y1="49.9998399%" x2="99.9996395%" y2="49.9998399%" id="linearGradient-4">
            <stop stop-color="#F8027C" offset="0%"></stop>
            <stop stop-color="#DC0191" offset="100%"></stop>
        </linearGradient>
        <linearGradient x1="-0.000763553067%" y1="49.9990959%" x2="99.999491%" y2="49.9990959%" id="linearGradient-5">
            <stop stop-color="#F30283" offset="0%"></stop>
            <stop stop-color="#DD0191" offset="100%"></stop>
        </linearGradient>
        <linearGradient x1="0.000705185464%" y1="49.9995409%" x2="100.17277%" y2="49.9995409%" id="linearGradient-6">
            <stop stop-color="#B301A2" offset="0%"></stop>
            <stop stop-color="#8000B0" offset="100%"></stop>
        </linearGradient>
        <linearGradient x1="-0.128280917%" y1="49.9986834%" x2="100.137739%" y2="49.9986834%" id="linearGradient-7">
            <stop stop-color="#FD0281" offset="0%"></stop>
            <stop stop-color="#EE018A" offset="100%"></stop>
        </linearGradient>
        <linearGradient x1="-0.000206803847%" y1="50.0002194%" x2="100.00062%" y2="50.0002194%" id="linearGradient-8">
            <stop stop-color="#DE01A7" offset="0%"></stop>
            <stop stop-color="#8000BE" offset="100%"></stop>
        </linearGradient>
        <linearGradient x1="-0.000518591505%" y1="50.0004114%" x2="100.000519%" y2="50.0004114%" id="linearGradient-9">
            <stop stop-color="#D00198" offset="0%"></stop>
            <stop stop-color="#AB01A5" offset="100%"></stop>
        </linearGradient>
        <linearGradient x1="0%" y1="49.9985866%" x2="100.00661%" y2="49.9985866%" id="linearGradient-10">
            <stop stop-color="#FB0277" offset="0%"></stop>
            <stop stop-color="#F9027A" offset="100%"></stop>
        </linearGradient>
        <linearGradient x1="-0.00139884595%" y1="50.0004672%" x2="100.110159%" y2="50.0004672%" id="linearGradient-11">
            <stop stop-color="#A100A7" offset="0%"></stop>
            <stop stop-color="#8100AF" offset="100%"></stop>
        </linearGradient>
        <linearGradient x1="-0.000228201091%" y1="49.9988764%" x2="100.000342%" y2="49.9988764%" id="linearGradient-12">
            <stop stop-color="#FC0282" offset="0%"></stop>
            <stop stop-color="#EC0288" offset="18.4%"></stop>
            <stop stop-color="#C30298" offset="54.23%"></stop>
            <stop stop-color="#8602AF" offset="100%"></stop>
        </linearGradient>
        <linearGradient x1="0.00062038588%" y1="49.9995409%" x2="99.9993796%" y2="49.9995409%" id="linearGradient-13">
            <stop stop-color="#FE036F" offset="0%"></stop>
            <stop stop-color="#F40281" offset="100%"></stop>
        </linearGradient>
        <linearGradient x1="0.00107192625%" y1="49.9994606%" x2="99.999464%" y2="49.9994606%" id="linearGradient-14">
            <stop stop-color="#FF0070" offset="0%"></stop>
            <stop stop-color="#FA0088" offset="100%"></stop>
        </linearGradient>
        <linearGradient x1="-0.000314277633%" y1="50.0007858%" x2="100.000629%" y2="50.0007858%" id="linearGradient-15">
            <stop stop-color="#D000AD" offset="0%"></stop>
            <stop stop-color="#A600B8" offset="100%"></stop>
        </linearGradient>
        <linearGradient x1="-0.000651253663%" y1="49.999398%" x2="99.9993487%" y2="49.999398%" id="linearGradient-16">
            <stop stop-color="#F90089" offset="0%"></stop>
            <stop stop-color="#EE0099" offset="100%"></stop>
        </linearGradient>
        <linearGradient x1="-0.000552455665%" y1="50%" x2="99.9997238%" y2="50%" id="linearGradient-17">
            <stop stop-color="#FE008A" offset="0%"></stop>
            <stop stop-color="#E400A2" offset="100%"></stop>
        </linearGradient>
        <linearGradient x1="-0.000509074248%" y1="49.9997417%" x2="99.9997455%" y2="49.9997417%" id="linearGradient-18">
            <stop stop-color="#FD008C" offset="0%"></stop>
            <stop stop-color="#E001A4" offset="100%"></stop>
        </linearGradient>
        <linearGradient x1="-0.109775585%" y1="50%" x2="100.145904%" y2="50%" id="linearGradient-19">
            <stop stop-color="#F001AC" offset="0%"></stop>
            <stop stop-color="#E100B5" offset="100%"></stop>
        </linearGradient>
        <linearGradient x1="-0.000651317289%" y1="49.9998997%" x2="99.9993487%" y2="49.9998997%" id="linearGradient-20">
            <stop stop-color="#FB0093" offset="0%"></stop>
            <stop stop-color="#F001AB" offset="100%"></stop>
        </linearGradient>
    </defs>
    <g id="Logo-compact" stroke="none" stroke-width="1" fill="none" fill-rule="evenodd" transform="translate(51.000000, 14.000000)">
        <g id="Group">
            <polygon id="Shape" fill="url(#linearGradient-1)" points="46.8729205 6.67851136 46.8729205 0.00889772727 28.1281705 14.0344773 9.38157955 0.00889772727 9.38157955 6.67851136 0.00920454545 2.97981818 1.23647727 42.8443977 28.1281705 53.9389432 55.0183295 42.8443977 56.2456023 2.97981818"></polygon>
            <polygon id="Shape" fill="url(#linearGradient-2)" points="8.78267045 9.33801136 0.00920454545 2.97981818 7.25655682 16.1140909"></polygon>
            <polygon id="Shape" fill="url(#linearGradient-3)" points="47.4721364 9.33801136 46.8729205 6.67851136 45.1510568 11.0199886"></polygon>
            <polygon id="Shape" fill="url(#linearGradient-4)" points="18.7057841 30.1847727 28.1275568 23.3568409 11.1034432 11.0199886"></polygon>
            <polygon id="Shape" fill="url(#linearGradient-5)" points="16.0732841 32.0925682 28.1281705 53.9389432 18.7057841 30.1847727"></polygon>
            <polygon id="Shape" fill="url(#linearGradient-6)" points="41.9656705 28.8599318 55.0183295 42.8443977 48.99825 16.1147045"></polygon>
            <polygon id="Shape" fill="url(#linearGradient-7)" points="33.3183068 19.5949432 28.1281705 14.0344773 28.1281705 23.3562273"></polygon>
            <polygon id="Shape" fill="url(#linearGradient-8)" points="40.1821364 32.092875 55.0183295 42.8443977 41.9656705 28.8599318"></polygon>
            <polygon id="Shape" fill="url(#linearGradient-9)" points="45.1510568 11.0199886 33.3183068 19.5949432 39.2356023 25.9347273"></polygon>
            <polygon id="Shape" fill="url(#linearGradient-10)" points="11.1034432 11.0199886 9.38157955 6.67851136 8.78267045 9.33801136"></polygon>
            <polygon id="Shape" fill="url(#linearGradient-11)" points="48.99825 16.1147045 56.2456023 2.97981818 47.4721364 9.33801136"></polygon>
            <polygon id="Shape" fill="url(#linearGradient-12)" points="28.1281705 53.9389432 55.0183295 42.8443977 40.1821364 32.092875"></polygon>
            <polygon id="Shape" fill="url(#linearGradient-13)" points="7.25655682 16.1140909 1.23647727 42.8443977 16.0732841 32.0925682"></polygon>
            <polygon id="Shape" fill="url(#linearGradient-14)" points="8.78267045 9.33801136 7.25655682 16.1140909 16.0732841 32.0925682 18.7057841 30.1847727 11.1034432 11.0199886"></polygon>
            <polygon id="Shape" fill="url(#linearGradient-15)" points="45.1510568 11.0199886 39.2356023 25.9347273 41.9656705 28.8599318 48.99825 16.1147045 47.4721364 9.33801136"></polygon>
            <polygon id="Shape" fill="url(#linearGradient-16)" points="28.1275568 23.3568409 18.7057841 30.1847727 28.1281705 53.9389432 28.1281705 23.3571477"></polygon>
            <polygon id="Shape" fill="url(#linearGradient-17)" points="33.3183068 19.5949432 28.1281705 23.3562273 28.1281705 23.3571477 37.5496364 30.1850795 39.2356023 25.9347273"></polygon>
            <polygon id="Shape" fill="url(#linearGradient-18)" points="37.5496364 30.1850795 28.1281705 53.9389432 40.1821364 32.092875"></polygon>
            <polygon id="Shape" fill="url(#linearGradient-19)" points="37.5496364 30.1850795 40.1821364 32.092875 41.9656705 28.8599318 39.2356023 25.9347273"></polygon>
            <polygon id="Shape" fill="url(#linearGradient-20)" points="28.1281705 23.3571477 28.1281705 53.9389432 37.5496364 30.1850795"></polygon>
        </g>
        <g id="Group" transform="translate(7.056818, 23.625000)" fill="#FFFFFF">
            <polygon id="Shape" points="5.71142045 9.80867045 5.71142045 5.85470455 2.16429545 5.85470455 2.16429545 9.80867045 0.229193182 9.80867045 0.229193182 0.274602273 2.16429545 0.274602273 2.16429545 4.17272727 5.71142045 4.17272727 5.71142045 0.274602273 7.64621591 0.274602273 7.64621591 9.80867045"></polygon>
            <path d="M15.5535341,0.555034091 L15.5535341,2.23731818 L11.417625,2.23731818 L11.1792273,4.24268182 C11.7585,4.01809091 12.3101591,3.90579545 12.8335909,3.90579545 C14.8337386,3.90579545 15.8339659,4.83576136 15.8339659,6.696 C15.8339659,7.74286364 15.5581364,8.55194318 15.0067841,9.12170455 C14.455125,9.69146591 13.6748864,9.97680682 12.6654545,9.97680682 C12.2352955,9.97680682 11.7471477,9.93477273 11.2003977,9.85039773 C10.6536477,9.76663636 10.2164318,9.67796591 9.88967045,9.58438636 L9.38464773,9.45797727 L9.595125,8.02820455 C10.7260568,8.20554545 11.6701364,8.29421591 12.4273636,8.29421591 C12.8851364,8.29421591 13.2358295,8.17302273 13.4788295,7.92971591 C13.7218295,7.68702273 13.8433295,7.33878409 13.8433295,6.88530682 C13.8433295,6.43213636 13.7405455,6.10261364 13.5349773,5.89704545 C13.3294091,5.69147727 13.0394659,5.58838636 12.6657614,5.58838636 C12.0392386,5.58838636 11.4878864,5.64882955 11.0110909,5.77063636 L10.8009205,5.82709091 L9.65127273,5.56046591 L9.90347727,0.555034091 L15.5535341,0.555034091 L15.5535341,0.555034091 Z" id="Shape"></path>
            <path d="M19.2832159,9.80867045 L17.4042614,9.80867045 L17.4042614,2.79848864 L19.2691023,2.79848864 L19.2691023,3.19090909 C19.9140341,2.81720455 20.4653864,2.63035227 20.9234659,2.63035227 C21.6803864,2.63035227 22.2645682,2.85003409 22.6763182,3.28909091 C23.5357159,2.84972727 24.3211705,2.63035227 25.0314545,2.63035227 C25.9568182,2.63035227 26.5996023,2.899125 26.9591932,3.43636364 C27.3193977,3.97421591 27.4991932,4.83115909 27.4991932,6.00934091 L27.4991932,9.80867045 L25.6205455,9.80867045 L25.6205455,6.06518182 C25.6205455,5.46719318 25.5551932,5.025375 25.423875,4.74034091 C25.2931705,4.45561364 25.0314545,4.31294318 24.6387273,4.31294318 C24.3395795,4.31294318 23.9747727,4.37829545 23.5452273,4.509 L23.33475,4.57926136 C23.371875,5.28034091 23.3912045,5.81297727 23.3912045,6.17747727 L23.3912045,9.80897727 L21.5125568,9.80897727 L21.5125568,6.20570455 C21.5125568,5.51413636 21.4515,5.02568182 21.33,4.74064773 C21.2085,4.45592045 20.941875,4.31325 20.5307386,4.31325 C20.1662386,4.31325 19.8063409,4.37860227 19.4510455,4.50930682 L19.2829091,4.56576136 L19.2829091,9.80867045 L19.2832159,9.80867045 Z" id="Shape"></path>
            <path d="M34.5372955,4.98579545 L34.5372955,7.90179545 C34.5560114,8.12638636 34.5934432,8.28286364 34.6495909,8.37153409 C34.7057386,8.46020455 34.8220227,8.52371591 34.9999773,8.56084091 L34.9438295,9.97680682 C34.4670341,9.97680682 34.0862727,9.94397727 33.8012386,9.878625 C33.5158977,9.81327273 33.2284091,9.68256818 32.9387727,9.48620455 C32.2659205,9.81327273 31.5786477,9.97711364 30.8775682,9.97711364 C29.4284659,9.97711364 28.704375,9.21068182 28.704375,7.67781818 C28.704375,6.92979545 28.9050341,6.39961364 29.3072727,6.08604545 C29.7092045,5.77309091 30.3259091,5.58869318 31.158,5.53223864 L32.6583409,5.42025 L32.6583409,4.98579545 C32.6583409,4.69585227 32.5926818,4.49734091 32.4619773,4.38964773 C32.3306591,4.28226136 32.1207955,4.22856818 31.8308523,4.22856818 L29.1949773,4.34055682 L29.1388295,3.03688636 C30.13875,2.76565909 31.0895795,2.63035227 31.9919318,2.63035227 C32.8936705,2.63035227 33.5435114,2.81720455 33.9408409,3.19090909 C34.3387841,3.56492045 34.5372955,4.16290909 34.5372955,4.98579545 L34.5372955,4.98579545 Z M31.3828977,6.83621591 C30.8591591,6.88285227 30.5974432,7.16328409 30.5974432,7.67751136 C30.5974432,8.19173864 30.8263295,8.44885227 31.2844091,8.44885227 C31.6393977,8.44885227 32.0275227,8.39239773 32.4481705,8.28040909 L32.6586477,8.22395455 L32.6586477,6.72392045 L31.3828977,6.83621591 L31.3828977,6.83621591 Z" id="Shape"></path>
            <path d="M42.6833182,10.68525 C42.6833182,11.4842045 42.3746591,12.0748295 41.7576477,12.4583523 C41.1406364,12.841875 40.3067045,13.0336364 39.2552386,13.0336364 C38.2034659,13.0336364 37.395,12.8934205 36.8295341,12.6129886 C36.2640682,12.3325568 35.9811818,11.822625 35.9811818,11.0844205 C35.9811818,10.4959432 36.3177614,9.939375 36.9909205,9.41594318 C36.6448295,9.18214773 36.4720909,8.82685227 36.4720909,8.35036364 C36.4720909,8.16351136 36.6123068,7.85485227 36.8927386,7.425 L37.0188409,7.22832955 C36.3831136,6.77055682 36.0655568,6.09525 36.0655568,5.20210227 C36.0655568,4.309875 36.3343295,3.66248864 36.871875,3.26025 C37.4091136,2.85831818 38.1218523,2.65735227 39.0100909,2.65735227 C39.4120227,2.65735227 39.8090455,2.70429545 40.2017727,2.79756818 L40.4260568,2.83990909 L42.6833182,2.76964773 L42.6833182,4.26998864 L41.6315455,4.18561364 C41.8371136,4.50378409 41.9402045,4.82134091 41.9402045,5.13889773 C41.9402045,6.07377273 41.7018068,6.71839773 41.2250114,7.074 C40.7482159,7.42960227 40.0005,7.60663636 38.9815568,7.60663636 C38.7664773,7.60663636 38.5750227,7.58792045 38.4068864,7.55018182 C38.313,7.79348864 38.2666705,7.99169318 38.2666705,8.14632955 C38.2666705,8.30035227 38.3458295,8.40589773 38.5047614,8.46143182 C38.6636932,8.51788636 39.0373977,8.55071591 39.6264886,8.55961364 C40.8040568,8.569125 41.6079205,8.72560227 42.0377727,9.02935227 C42.467625,9.33310227 42.6833182,9.88598864 42.6833182,10.68525 L42.6833182,10.68525 Z M37.8322159,10.8883636 C37.8322159,11.2899886 38.3249659,11.4912614 39.3113864,11.4912614 C40.2975,11.4912614 40.7905568,11.2574659 40.7905568,10.7901818 C40.7905568,10.5379773 40.7064886,10.3765909 40.5380455,10.3066364 C40.3699091,10.236375 40.0146136,10.1964886 39.4724659,10.1872841 L38.2108295,10.0891023 C37.9583182,10.3413068 37.8322159,10.6079318 37.8322159,10.8883636 L37.8322159,10.8883636 Z M37.9442045,5.146875 C37.9442045,5.83353409 38.3019545,6.17686364 39.0168409,6.17686364 C39.7320341,6.17686364 40.0894773,5.83353409 40.0894773,5.146875 C40.0894773,4.45960227 39.7320341,4.11627273 39.0168409,4.11627273 C38.3019545,4.11627273 37.9442045,4.45960227 37.9442045,5.146875 L37.9442045,5.146875 Z" id="Shape"></path>
        </g>
    </g>
</svg>